<svg width="20.000000" height="20.000000" viewBox="0 0 20 20" fill="none" xmlns="http://www.w3.org/2000/svg" xmlns:xlink="http://www.w3.org/1999/xlink">
	<desc>
			Created with Pixso.
	</desc>
	<defs/>
	<path id="Vector" d="M10 18C7.87 18 5.84 17.15 4.34 15.65C2.84 14.15 2 12.12 2 10C2 7.87 2.84 5.84 4.34 4.34C5.84 2.84 7.87 2 10 2C12.12 2 14.15 2.84 15.65 4.34C17.15 5.84 18 7.87 18 10C18 12.12 17.15 14.15 15.65 15.65C14.15 17.15 12.12 18 10 18ZM10 0C8.68 0 7.38 0.25 6.17 0.76C4.95 1.26 3.85 2 2.92 2.92C1.05 4.8 0 7.34 0 10C0 12.65 1.05 15.19 2.92 17.07C3.85 17.99 4.95 18.73 6.17 19.23C7.38 19.74 8.68 20 10 20C12.65 20 15.19 18.94 17.07 17.07C18.94 15.19 20 12.65 20 10C20 8.68 19.74 7.38 19.23 6.17C18.73 4.95 17.99 3.85 17.07 2.92C16.14 2 15.04 1.26 13.82 0.76C12.61 0.25 11.31 0 10 0Z" fill="#000000" fill-opacity="1.000000" fill-rule="nonzero"/>
</svg>
